<?xml version="1.0" standalone="no"?>
<!DOCTYPE svg PUBLIC "-//W3C//DTD SVG 20010904//EN"
 "http://www.w3.org/TR/2001/REC-SVG-20010904/DTD/svg10.dtd">
<svg version="1.0" xmlns="http://www.w3.org/2000/svg"
 width="756.000000pt" height="135.000000pt" viewBox="0 0 756.000000 135.000000"
 preserveAspectRatio="xMidYMid meet">

<g transform="translate(0.000000,135.000000) scale(0.100000,-0.100000)"
fill="#000000" stroke="none">
<path d="M3175 1298 c-3 -7 -4 -283 -3 -613 l3 -600 1553 -3 1552 -2 0 50 0
50 -1505 0 -1505 0 0 515 0 515 2075 0 2075 0 0 -515 0 -515 -75 0 -75 0 0
-50 0 -50 120 0 120 0 0 615 0 615 -2165 0 c-1723 0 -2167 -3 -2170 -12z"/>
<path d="M275 1038 c-10 -28 -205 -686 -205 -692 0 -3 22 -6 50 -6 l49 0 11
43 c6 23 16 57 21 75 l11 33 111 -3 110 -3 20 -72 19 -73 49 0 c33 0 49 4 49
13 0 6 -47 165 -103 352 l-103 340 -42 3 c-28 2 -44 -1 -47 -10z m125 -435 c0
-9 -22 -13 -80 -13 -44 0 -80 3 -80 6 0 12 72 279 78 288 5 9 81 -252 82 -281z"/>
<path d="M660 695 l0 -355 45 0 45 0 0 355 0 355 -45 0 -45 0 0 -355z"/>
<path d="M890 695 l0 -355 45 0 45 0 0 150 0 150 58 0 58 0 60 -147 60 -148
57 -3 56 -3 -65 150 c-35 82 -64 153 -64 158 0 5 14 17 30 26 48 29 70 83 70
174 0 62 -4 85 -21 113 -45 73 -89 88 -256 89 l-133 1 0 -355z m259 254 c41
-15 51 -35 51 -109 0 -51 -4 -65 -25 -85 -22 -23 -32 -25 -110 -25 l-85 0 0
115 0 115 69 0 c37 0 82 -5 100 -11z"/>
<path d="M1430 1005 l0 -44 119 -3 119 -3 -124 -264 c-99 -211 -124 -274 -124
-308 l0 -43 185 0 185 0 0 45 0 44 -130 3 -129 3 124 267 c95 203 125 277 125
308 l0 40 -175 0 -175 0 0 -45z"/>
<path d="M2140 695 l0 -355 142 0 c121 0 148 3 183 20 61 29 85 78 85 172 0
86 -22 131 -76 159 l-31 15 29 13 c47 21 68 65 68 144 0 72 -13 108 -52 144
-35 32 -91 43 -225 43 l-123 0 0 -355z m279 241 c43 -39 34 -152 -14 -174 -14
-7 -59 -12 -100 -12 l-75 0 0 106 0 107 85 -5 c62 -3 90 -9 104 -22z m6 -301
c22 -21 25 -33 25 -94 0 -63 -2 -71 -26 -90 -22 -17 -41 -21 -110 -21 l-84 0
0 115 0 115 85 0 c78 0 88 -2 110 -25z"/>
<path d="M2595 1030 c4 -11 42 -102 86 -202 l79 -181 0 -153 0 -154 50 0 50 0
0 144 0 143 85 201 c47 110 85 205 85 212 0 7 -17 10 -47 8 l-48 -3 -61 -154
-61 -154 -62 157 -63 156 -50 0 c-45 0 -49 -2 -43 -20z"/>
<path d="M3480 787 l0 -163 -40 -119 c-22 -65 -40 -120 -40 -122 0 -2 17 -3
38 -3 l38 0 41 119 c36 104 56 140 145 273 57 84 107 158 111 165 6 10 -2 13
-31 13 l-40 0 -73 -117 -74 -118 -3 118 -3 117 -34 0 -35 0 0 -163z"/>
<path d="M3870 939 c-33 -13 -78 -57 -97 -94 -30 -56 -123 -349 -123 -385 0
-55 35 -83 102 -83 68 0 130 31 163 81 38 57 149 393 141 426 -12 49 -40 66
-103 65 -32 0 -69 -5 -83 -10z m81 -69 c10 -6 19 -21 19 -33 0 -33 -108 -338
-127 -359 -32 -35 -113 -30 -113 7 0 20 106 328 121 354 12 18 47 38 72 40 5
1 17 -4 28 -9z"/>
<path d="M4212 933 c-41 -20 -77 -65 -97 -122 -30 -85 -14 -127 69 -175 24
-14 46 -34 48 -44 3 -10 -3 -41 -14 -69 -21 -57 -57 -80 -104 -69 -25 7 -26
10 -20 52 l6 45 -38 -3 c-33 -3 -38 -7 -51 -44 -28 -81 11 -129 104 -127 91 2
146 46 184 148 36 95 27 129 -43 170 -24 14 -51 34 -61 45 -16 18 -17 24 -5
61 21 63 77 96 119 70 10 -7 12 -20 7 -50 l-6 -41 39 0 c37 0 39 1 50 44 16
63 14 74 -14 101 -20 21 -34 25 -82 25 -33 0 -72 -7 -91 -17z"/>
<path d="M4555 931 c-48 -29 -83 -77 -101 -137 -21 -74 -8 -105 63 -151 30
-19 57 -41 60 -49 9 -24 -16 -94 -42 -120 -28 -28 -76 -32 -95 -9 -10 12 -11
24 -2 50 l10 35 -38 0 c-46 0 -50 -5 -57 -73 -6 -64 8 -85 62 -97 107 -24 195
35 234 157 29 89 20 112 -63 167 -57 38 -58 40 -53 78 7 56 31 86 72 94 58 11
76 -17 50 -78 -6 -15 -1 -18 33 -18 36 0 41 3 51 31 17 49 13 97 -9 119 -27
27 -131 28 -175 1z"/>
<path d="M4771 714 c-44 -130 -81 -248 -81 -263 0 -31 32 -65 70 -74 33 -8
107 9 142 34 40 29 59 71 137 302 38 111 72 210 76 220 6 14 1 17 -33 17 -29
0 -42 -5 -47 -17 -4 -10 -38 -109 -75 -220 -38 -110 -73 -210 -79 -222 -26
-48 -101 -53 -101 -6 0 13 34 122 75 242 41 120 75 219 75 220 0 2 -17 3 -39
3 l-39 0 -81 -236z"/>
<path d="M5093 683 c-50 -148 -94 -276 -98 -285 -6 -15 -1 -18 33 -18 l40 0
42 120 43 120 77 0 78 0 11 31 c6 18 11 36 11 40 0 5 -34 9 -76 9 -57 0 -75 3
-71 13 2 6 15 44 28 84 l23 72 89 3 90 3 13 38 13 37 -128 0 -128 0 -90 -267z"/>
<path d="M5625 938 c-31 -85 -185 -542 -185 -550 0 -5 16 -8 36 -6 l37 3 61
175 61 175 9 -178 9 -178 36 3 36 3 92 270 c50 149 92 276 92 283 1 9 -10 12
-36 10 l-36 -3 -61 -180 -61 -180 -6 90 c-4 50 -7 132 -8 183 l-1 92 -35 0
c-20 0 -38 -6 -40 -12z"/>
<path d="M5975 903 c-43 -124 -175 -515 -175 -519 0 -2 17 -4 39 -4 l38 0 91
268 c50 147 94 275 97 285 6 14 1 17 -33 17 -39 0 -41 -1 -57 -47z"/>
<path d="M6135 938 c-35 -100 -185 -545 -185 -550 0 -5 44 -8 98 -8 109 0 152
15 187 67 11 16 51 119 88 229 90 264 87 274 -94 274 -63 0 -91 -4 -94 -12z
m165 -80 c0 -27 -122 -377 -135 -388 -7 -6 -36 -10 -63 -8 l-49 3 70 203 70
202 53 0 c37 0 54 -4 54 -12z"/>
<path d="M6485 938 c-23 -61 -185 -541 -185 -549 0 -5 40 -9 90 -9 103 0 160
18 190 60 11 15 49 113 85 218 74 212 79 257 35 279 -34 17 -209 18 -215 1z
m165 -82 c0 -20 -121 -368 -133 -383 -5 -8 -32 -13 -63 -13 l-53 0 54 158 c29
86 61 178 70 205 l17 47 54 0 c40 0 54 -4 54 -14z"/>
<path d="M6778 671 c-87 -153 -158 -281 -158 -284 0 -4 17 -7 38 -7 37 0 39 2
76 70 l37 70 61 0 c57 0 60 -1 55 -22 -3 -13 -9 -44 -12 -70 l-7 -48 40 0 c49
0 41 -29 77 292 33 297 34 278 -12 278 l-38 -1 -157 -278z m140 27 l-21 -128
-48 0 c-27 0 -49 2 -49 4 0 8 132 257 135 254 1 -2 -6 -60 -17 -130z"/>
<path d="M7088 665 l-97 -285 123 0 124 0 11 31 c6 18 11 36 11 40 0 5 -36 9
-80 9 -44 0 -80 2 -80 4 0 3 36 109 80 237 44 127 80 236 80 240 0 5 -17 9
-37 9 l-38 0 -97 -285z"/>
<path d="M6321 128 c0 -42 2 -48 9 -30 5 12 16 22 25 22 9 0 18 7 21 15 8 20
-13 45 -37 45 -16 0 -19 -8 -18 -52z m39 16 c0 -17 -22 -14 -28 4 -2 7 3 12
12 12 9 0 16 -7 16 -16z"/>
<path d="M6390 130 c0 -48 19 -74 21 -27 l0 22 11 -22 c16 -34 23 -28 25 20 1
43 -9 57 -39 57 -15 0 -18 -9 -18 -50z m40 20 c0 -5 -4 -10 -10 -10 -5 0 -10
5 -10 10 0 6 5 10 10 10 6 0 10 -4 10 -10z"/>
<path d="M6473 130 c0 -30 2 -43 4 -28 2 16 2 40 0 55 -2 16 -4 3 -4 -27z"/>
<path d="M6505 140 c7 -55 21 -72 33 -39 17 45 22 79 13 79 -5 0 -13 -15 -17
-32 l-7 -33 -14 35 -13 35 5 -45z"/>
<path d="M6581 141 c-16 -54 -15 -67 4 -51 12 10 18 10 30 0 18 -15 18 -8 5
42 -15 51 -25 54 -39 9z m29 -22 c0 -5 -4 -9 -10 -9 -5 0 -10 7 -10 16 0 8 5
12 10 9 6 -3 10 -10 10 -16z"/>
<path d="M6640 169 c0 -5 4 -9 9 -9 6 0 12 -19 14 -42 l4 -43 1 43 c1 30 6 42
17 42 11 0 15 -11 15 -40 0 -39 1 -40 33 -39 23 1 26 3 10 6 -25 5 -32 33 -8
33 8 0 15 5 15 10 0 6 -7 10 -15 10 -8 0 -15 5 -15 10 0 6 9 10 20 10 11 0 20
4 20 9 0 5 -27 9 -60 9 -33 0 -60 -4 -60 -9z"/>
<path d="M6804 166 c-3 -8 -4 -29 -2 -48 2 -28 7 -33 28 -33 18 0 26 6 28 23
2 14 -2 22 -12 22 -9 0 -13 -6 -10 -14 3 -8 1 -17 -5 -20 -12 -8 -26 38 -16
54 4 6 16 8 28 4 19 -6 20 -5 8 10 -17 20 -40 21 -47 2z"/>
<path d="M6897 170 c-20 -55 -26 -84 -21 -89 4 -3 9 0 11 7 5 14 33 16 33 2 0
-5 5 -10 11 -10 11 0 6 22 -16 75 -9 21 -14 26 -18 15z m10 -52 c-3 -8 -6 -5
-6 6 -1 11 2 17 5 13 3 -3 4 -12 1 -19z"/>
<path d="M6950 131 c0 -52 15 -70 23 -28 l4 22 8 -22 c12 -37 21 -26 20 25 0
44 -2 47 -27 50 -27 3 -28 2 -28 -47z m40 19 c0 -5 -4 -10 -10 -10 -5 0 -10 5
-10 10 0 6 5 10 10 10 6 0 10 -4 10 -10z"/>
<path d="M7037 133 c-15 -54 -14 -61 8 -43 12 10 18 10 32 -1 15 -13 16 -11
10 13 -10 38 -26 78 -31 78 -3 0 -11 -21 -19 -47z m20 -15 c-3 -8 -6 -5 -6 6
-1 11 2 17 5 13 3 -3 4 -12 1 -19z"/>
<path d="M7112 168 c-14 -14 -16 -57 -3 -76 13 -21 46 -10 49 16 2 15 -2 22
-14 22 -13 0 -14 -3 -5 -14 7 -8 8 -17 3 -20 -14 -9 -22 4 -22 36 0 25 3 28
21 23 15 -5 20 -3 17 6 -6 19 -31 22 -46 7z"/>
<path d="M7180 130 c0 -48 1 -50 28 -49 16 1 20 3 10 6 -10 2 -18 11 -18 19 0
8 8 14 18 14 16 1 16 1 0 14 -22 16 -23 26 -3 26 8 0 15 5 15 10 0 6 -11 10
-25 10 -23 0 -25 -3 -25 -50z"/>
</g>
</svg>
