<?xml version="1.0" standalone="no"?>
<!DOCTYPE svg PUBLIC "-//W3C//DTD SVG 20010904//EN"
 "http://www.w3.org/TR/2001/REC-SVG-20010904/DTD/svg10.dtd">
<svg version="1.0" xmlns="http://www.w3.org/2000/svg"
 width="311.000000pt" height="62.000000pt" viewBox="0 0 311.000000 62.000000"
 preserveAspectRatio="xMidYMid meet">

<g transform="translate(0.000000,62.000000) scale(0.100000,-0.100000)"
fill="#000000" stroke="none">
<path d="M1380 295 l0 -235 610 0 c536 0 610 2 610 15 0 13 -72 15 -590 15
l-590 0 0 205 0 205 810 0 810 0 0 -205 0 -205 -30 0 c-20 0 -30 -5 -30 -15 0
-11 12 -15 50 -15 l50 0 0 235 0 235 -850 0 -850 0 0 -235z"/>
<path d="M102 317 c-23 -78 -42 -145 -42 -150 0 -4 9 -7 20 -7 15 0 22 9 27
30 5 28 8 30 55 30 46 0 49 -2 55 -30 4 -23 11 -30 29 -30 14 0 22 5 19 13 -2
6 -18 59 -35 117 -51 171 -50 170 -69 170 -13 0 -26 -31 -59 -143z m87 -34 c1
-19 -4 -23 -29 -23 -37 0 -38 16 -3 110 7 17 31 -50 32 -87z"/>
<path d="M310 311 c0 -145 1 -151 20 -151 20 0 20 5 18 147 -3 131 -5 148 -20
151 -17 3 -18 -9 -18 -147z"/>
<path d="M410 311 c0 -144 1 -151 20 -151 18 0 20 7 20 60 0 57 1 60 24 60 20
0 27 -10 46 -60 19 -50 26 -60 46 -60 24 0 24 0 8 38 -36 84 -37 89 -15 111
27 27 28 90 2 122 -15 19 -30 24 -85 27 l-66 4 0 -151z m111 99 c12 -7 19 -21
19 -40 0 -32 -23 -50 -64 -50 -24 0 -26 3 -26 50 0 47 2 50 26 50 14 0 34 -5
45 -10z"/>
<path d="M630 440 c0 -17 7 -20 50 -20 28 0 50 -2 50 -5 0 -3 -22 -54 -50
-112 -68 -144 -68 -143 25 -143 68 0 75 2 75 20 0 17 -7 20 -50 20 -27 0 -50
2 -50 4 0 2 23 52 50 111 68 145 68 145 -25 145 -68 0 -75 -2 -75 -20z"/>
<path d="M920 311 l0 -151 65 0 c52 0 69 4 85 20 27 27 27 90 0 115 -19 17
-19 19 -3 30 24 17 24 89 0 112 -11 11 -38 18 -82 21 l-65 4 0 -151z m121 88
c19 -36 -3 -69 -46 -69 -35 0 -35 0 -35 45 0 45 0 45 35 45 25 0 37 -6 46 -21z
m5 -133 c11 -47 2 -61 -44 -64 l-42 -3 0 45 0 46 40 0 c34 0 41 -4 46 -24z"/>
<path d="M1110 450 c0 -7 16 -48 35 -93 27 -61 35 -94 35 -139 0 -51 2 -58 20
-58 18 0 20 7 20 63 0 49 8 80 35 146 19 45 35 85 35 87 0 3 -10 4 -22 2 -14
-2 -25 -15 -33 -38 -7 -19 -18 -48 -25 -65 l-11 -30 -27 65 c-17 39 -34 66
-45 68 -9 2 -17 -2 -17 -8z"/>
<path d="M1648 385 c-31 -17 -70 -109 -72 -170 -1 -36 1 -40 26 -43 46 -5 65
14 97 99 36 95 37 105 12 119 -25 13 -30 12 -63 -5z m22 -108 c-20 -58 -29
-73 -47 -75 -28 -4 -28 -2 -2 79 23 68 45 97 63 79 7 -7 3 -33 -14 -83z"/>
<path d="M1792 390 c-13 -6 -30 -27 -39 -47 -15 -38 -15 -38 16 -64 28 -23 30
-29 22 -52 -13 -33 -51 -38 -51 -6 0 12 -5 19 -12 17 -7 -3 -13 -18 -13 -34 0
-25 4 -29 30 -32 37 -4 72 29 81 75 5 26 2 34 -20 48 -29 19 -34 46 -11 65 16
14 35 6 35 -16 0 -8 7 -14 15 -14 21 0 20 56 -1 64 -19 7 -23 7 -52 -4z"/>
<path d="M1934 390 c-27 -11 -54 -48 -54 -74 0 -11 12 -30 27 -42 25 -20 26
-24 15 -48 -14 -30 -49 -33 -44 -3 5 28 -27 20 -34 -9 -12 -48 50 -61 91 -19
34 33 33 79 0 101 -29 19 -32 36 -9 59 20 19 40 14 36 -9 -2 -12 2 -17 15 -14
24 5 29 39 7 55 -20 15 -21 15 -50 3z"/>
<path d="M1500 326 c0 -35 -7 -83 -15 -106 -8 -24 -13 -45 -11 -48 13 -12 34
10 45 49 7 24 31 69 52 100 43 64 45 69 26 69 -7 0 -24 -19 -38 -42 l-24 -43
-3 43 c-2 28 -8 42 -18 42 -11 0 -14 -15 -14 -64z"/>
<path d="M2006 302 c-33 -101 -32 -126 5 -130 40 -5 64 25 98 121 36 103 36
99 15 95 -11 -2 -28 -34 -48 -93 -21 -62 -36 -91 -48 -93 -25 -5 -23 14 12
107 27 73 28 81 12 81 -14 0 -25 -21 -46 -88z"/>
<path d="M2128 279 c-29 -88 -34 -110 -21 -107 8 2 23 23 32 48 14 39 21 45
49 48 38 4 44 22 7 22 -26 0 -29 9 -19 47 5 17 15 23 42 25 57 5 53 28 -5 28
l-49 0 -36 -111z"/>
<path d="M2337 383 c-13 -23 -68 -205 -64 -210 12 -11 26 9 42 60 26 78 35 79
35 4 0 -100 21 -90 61 31 17 53 34 103 37 110 2 6 -3 12 -11 12 -10 0 -24 -24
-39 -67 l-23 -68 -3 68 c-2 49 -7 67 -17 67 -8 0 -16 -3 -18 -7z"/>
<path d="M2446 289 c-41 -113 -42 -119 -22 -119 9 0 26 35 47 98 17 53 34 103
37 110 2 6 -3 12 -11 12 -10 0 -27 -34 -51 -101z"/>
<path d="M2535 378 c-18 -47 -65 -193 -65 -200 0 -13 74 -9 93 5 19 13 80 184
71 198 -8 14 -94 11 -99 -3z m65 -26 c0 -4 -11 -39 -23 -78 -19 -54 -28 -70
-45 -72 -12 -2 -22 1 -22 6 0 7 26 87 45 140 5 13 45 17 45 4z"/>
<path d="M2641 293 c-18 -54 -35 -104 -38 -110 -7 -19 67 -17 94 2 24 17 78
166 69 190 -3 10 -20 15 -49 15 l-43 0 -33 -97z m97 55 c-3 -7 -13 -38 -23
-68 -21 -65 -31 -80 -55 -80 -17 0 -16 6 8 80 23 70 29 80 50 80 15 0 22 -5
20 -12z"/>
<path d="M2843 378 c-15 -20 -113 -195 -113 -202 0 -17 27 -2 42 24 23 41 58
41 58 0 0 -19 5 -30 14 -30 9 0 15 19 20 63 4 34 9 83 13 110 4 38 3 47 -9 47
-9 0 -20 -6 -25 -12z m1 -87 c-5 -31 -11 -41 -25 -41 -18 0 -18 2 3 45 12 24
23 43 25 41 2 -2 1 -22 -3 -45z"/>
<path d="M2945 380 c-10 -17 -65 -183 -65 -197 0 -19 86 -18 94 2 4 11 -2 15
-24 15 -17 0 -30 5 -30 11 0 6 13 48 30 95 23 65 26 84 15 84 -7 0 -17 -5 -20
-10z"/>
<path d="M2610 74 c0 -14 3 -14 15 -4 10 9 15 9 15 1 0 -6 5 -11 10 -11 6 0
10 7 10 15 0 9 -9 15 -25 15 -16 0 -25 -6 -25 -16z"/>
<path d="M2761 74 c0 -11 3 -14 6 -6 3 7 2 16 -1 19 -3 4 -6 -2 -5 -13z"/>
<path d="M2830 75 c0 -8 4 -15 10 -15 5 0 7 7 4 15 -4 8 -8 15 -10 15 -2 0 -4
-7 -4 -15z"/>
<path d="M2860 74 c0 -8 5 -12 10 -9 6 3 10 10 10 16 0 5 -4 9 -10 9 -5 0 -10
-7 -10 -16z"/>
<path d="M2890 75 c0 -8 4 -15 10 -15 5 0 7 7 4 15 -4 8 -8 15 -10 15 -2 0 -4
-7 -4 -15z"/>
<path d="M2950 81 c0 -5 -8 -11 -17 -13 -15 -3 -14 -5 5 -10 17 -5 22 -2 22
13 0 10 -2 19 -5 19 -3 0 -5 -4 -5 -9z"/>
<path d="M2710 70 c0 -5 5 -10 10 -10 6 0 10 5 10 10 0 6 -4 10 -10 10 -5 0
-10 -4 -10 -10z"/>
</g>
</svg>
